<?xml version="1.0" standalone="no"?>
<!DOCTYPE svg PUBLIC "-//W3C//DTD SVG 20010904//EN"
 "http://www.w3.org/TR/2001/REC-SVG-20010904/DTD/svg10.dtd">
<svg version="1.0" xmlns="http://www.w3.org/2000/svg"
 width="700.000000pt" height="700.000000pt" viewBox="0 0 700.000000 700.000000"
 preserveAspectRatio="xMidYMid meet">
<metadata>
Created by potrace 1.11, written by Peter Selinger 2001-2013
</metadata>
<g transform="translate(0.000000,700.000000) scale(0.100000,-0.100000)"
fill="#000000" stroke="none">
<path d="M4159 6656 c-2 -2 -31 -6 -64 -10 -107 -11 -239 -36 -305 -58 -19 -7
-37 -13 -40 -13 -18 -3 -98 -33 -175 -65 -235 -99 -401 -212 -710 -481 -16
-15 -100 -86 -185 -159 -85 -73 -166 -142 -180 -154 -14 -11 -72 -62 -130
-111 -58 -49 -118 -102 -135 -116 -16 -15 -82 -70 -145 -124 -63 -53 -126
-107 -140 -118 -14 -12 -55 -47 -90 -77 -36 -30 -67 -57 -70 -60 -3 -3 -50
-43 -105 -90 -55 -47 -105 -89 -111 -95 -6 -5 -35 -30 -64 -55 -317 -267 -467
-406 -560 -515 -108 -127 -237 -342 -300 -500 -18 -44 -36 -89 -41 -100 -13
-31 -59 -196 -65 -235 -3 -19 -9 -53 -14 -75 -28 -130 -35 -478 -12 -615 38
-224 95 -406 182 -585 179 -368 435 -635 830 -866 131 -77 643 -379 710 -419
297 -177 867 -510 875 -510 2 0 36 -15 77 -34 142 -66 372 -133 513 -151 210
-25 410 -25 560 0 449 77 814 261 1110 559 320 322 495 685 560 1161 12 90 27
193 30 215 2 14 6 46 9 72 3 26 8 64 11 85 3 21 8 56 11 78 3 22 7 51 9 65 2
14 9 63 15 110 6 47 13 100 15 118 6 40 14 95 21 147 3 22 7 51 9 65 2 14 6
46 9 72 6 50 14 104 21 153 2 17 14 102 25 190 12 88 23 176 26 195 3 19 7 46
9 60 2 14 7 48 10 75 4 28 8 61 10 75 2 14 11 81 20 150 9 69 18 136 20 150 2
14 11 81 20 150 16 128 23 178 30 218 22 132 22 447 1 557 -2 11 -7 40 -11 65
-31 200 -129 461 -246 655 -92 152 -275 368 -404 475 -283 235 -657 409 -980
455 -23 3 -52 8 -65 11 -28 6 -395 16 -401 10z m-59 -1450 c114 -25 161 -41
255 -85 341 -160 581 -477 632 -836 14 -98 7 -335 -12 -430 -2 -11 -7 -42 -10
-70 -6 -46 -31 -237 -40 -295 -2 -14 -6 -50 -10 -80 -7 -61 -13 -102 -20 -140
-2 -14 -7 -47 -10 -75 -15 -122 -22 -174 -30 -225 -4 -26 -5 -31 -30 -225 -38
-283 -121 -502 -252 -657 -289 -343 -731 -484 -1158 -371 -33 9 -64 20 -69 24
-6 5 -17 9 -25 9 -20 0 -183 83 -274 138 -37 23 -70 42 -73 42 -3 0 -18 8 -32
19 -15 10 -142 86 -282 168 -315 185 -383 227 -438 269 -174 133 -312 323
-377 519 -131 397 -38 827 242 1120 26 28 113 106 193 175 137 116 169 144
209 180 9 8 59 51 111 95 52 44 97 82 100 85 3 4 37 33 75 65 39 32 72 61 75
64 3 3 48 42 100 86 52 44 100 84 106 90 6 5 32 28 58 50 27 22 58 49 70 59
39 35 181 124 241 151 109 50 214 82 305 92 25 3 47 6 49 8 9 10 256 -5 321
-19z"/>
<path d="M3745 5090 c-22 -5 -53 -11 -68 -14 -97 -18 -233 -76 -327 -140 -56
-38 -40 -24 -319 -263 -605 -516 -830 -711 -867 -753 -264 -292 -325 -722
-152 -1080 50 -104 127 -208 213 -288 84 -79 100 -90 445 -292 162 -95 307
-180 322 -189 258 -153 388 -217 476 -236 l32 -7 0 589 0 589 -27 2 c-111 9
-252 76 -341 160 -93 89 -143 173 -172 289 -53 207 4 417 154 568 118 119 244
175 406 181 283 10 511 -152 605 -431 23 -70 28 -215 8 -299 -53 -232 -247
-422 -470 -459 -38 -6 -70 -14 -73 -18 -3 -4 -5 -272 -4 -595 l0 -589 35 -5
c40 -6 132 -5 204 3 172 19 368 103 505 216 177 145 291 334 339 556 13 62 16
80 37 240 3 22 7 51 9 65 2 14 9 61 14 105 20 157 30 231 35 260 3 17 8 50 10
75 3 25 10 79 16 120 6 41 13 92 15 113 3 20 7 54 10 75 5 47 14 109 20 142 2
14 7 52 11 85 3 33 10 82 14 109 13 84 11 228 -4 311 -22 116 -22 116 -51 191
-119 301 -394 528 -730 605 -62 14 -276 20 -330 9z"/>
<path d="M3250 3938 c-104 -52 -131 -187 -54 -276 43 -50 119 -73 182 -54 114
34 161 168 95 270 -48 73 -143 99 -223 60z"/>
</g>
</svg>
