<svg width="128" height="40" viewBox="0 0 128 40" fill="none" xmlns="http://www.w3.org/2000/svg">
<rect width="128" height="40" fill="black" fill-opacity="0"/>
<rect width="128" height="40" fill="black" fill-opacity="0"/>
<rect width="128" height="40" fill="black" fill-opacity="0"/>
<path d="M124 40H4C2.93913 40 1.92172 39.5786 1.17157 38.8284C0.421427 38.0783 0 37.0609 0 36V4C0 2.93913 0.421427 1.92172 1.17157 1.17157C1.92172 0.421427 2.93913 0 4 0L124 0C125.061 0 126.078 0.421427 126.828 1.17157C127.579 1.92172 128 2.93913 128 4V36C128 37.0609 127.579 38.0783 126.828 38.8284C126.078 39.5786 125.061 40 124 40Z" fill="black"/>
<path d="M27 19.8C27.0333 18.8559 27.2966 17.9343 27.7672 17.1152C28.2377 16.2961 28.9012 15.6043 29.7 15.1C29.1714 14.3867 28.4964 13.7946 27.7203 13.3635C26.9442 12.9323 26.0849 12.672 25.2 12.6C23.3 12.4 21.4 13.7 20.5 13.7C19.6 13.7 18 12.6 16.4 12.6C15.352 12.6208 14.3281 12.9185 13.4324 13.463C12.5367 14.0074 11.801 14.7792 11.3 15.7C9.10001 19.5 10.7 25.1 12.8 28.2C13.9 29.7 15.1 31.4 16.7 31.3C18.3 31.2 18.9 30.3 20.8 30.3C22.7 30.3 23.2 31.3 24.9 31.3C26.6 31.3 27.7 29.8 28.7 28.3C29.462 27.2388 30.037 26.055 30.4 24.8C29.4091 24.3866 28.5599 23.6937 27.9561 22.8058C27.3524 21.9179 27.0201 20.8735 27 19.8Z" fill="white"/>
<path d="M23.9 10.6C24.7862 9.45887 25.246 8.04408 25.2 6.60001C23.7968 6.7353 22.5035 7.41792 21.6 8.50001C21.1354 9.01114 20.7804 9.61198 20.5568 10.2655C20.3333 10.919 20.2459 11.6114 20.3 12.3C20.9873 12.294 21.6652 12.1389 22.2867 11.8454C22.9082 11.5519 23.4587 11.127 23.9 10.6Z" fill="white"/>
<path d="M49.8 31.1H47.6L46.4 27.3H42.2L41.1 31.1H39L43.2 18.2H45.8L49.8 31.1ZM46 25.7L44.9 22.3C44.8 22 44.6 21.1 44.2 19.9C44.1 20.4 43.9 21.3 43.6 22.3L42.5 25.7H46Z" fill="white"/>
<path d="M60.5 26.4C60.5798 27.7879 60.1132 29.1518 59.2 30.2C58.828 30.5925 58.3775 30.9022 57.8778 31.1089C57.3782 31.3157 56.8405 31.4149 56.3 31.4C55.788 31.4514 55.272 31.3566 54.8118 31.1265C54.3516 30.8964 53.966 30.5404 53.7 30.1V35H51.6V25C51.6 24 51.6 23 51.5 21.9H53.3L53.4 23.4C53.7153 22.8634 54.1699 22.422 54.7157 22.1227C55.2614 21.8234 55.878 21.6774 56.5 21.7C57.0216 21.6824 57.5397 21.7915 58.0099 22.0179C58.4801 22.2443 58.8885 22.5813 59.2 23C59.6555 23.4347 60.0086 23.9653 60.2334 24.5534C60.4583 25.1415 60.5494 25.7723 60.5 26.4ZM58.4 26.4C58.4444 25.621 58.2338 24.8486 57.8 24.2C57.6063 23.9043 57.3376 23.6652 57.0214 23.5071C56.7053 23.349 56.3528 23.2776 56 23.3C55.492 23.3136 55.0016 23.4887 54.6 23.8C54.1881 24.1252 53.9046 24.5857 53.8 25.1C53.7321 25.2927 53.6983 25.4957 53.7 25.7V27.3C53.6835 27.9213 53.8972 28.5267 54.3 29C54.4964 29.2301 54.7424 29.4126 55.0196 29.5339C55.2967 29.6551 55.5977 29.7119 55.9 29.7C56.2528 29.7225 56.6053 29.651 56.9214 29.4929C57.2376 29.3348 57.5063 29.0957 57.7 28.8C58.2117 28.1089 58.46 27.2578 58.4 26.4Z" fill="white"/>
<path d="M71.1999 26.4C71.2797 27.7879 70.8131 29.1518 69.9 30.2C69.5279 30.5925 69.0774 30.9022 68.5778 31.1089C68.0781 31.3157 67.5405 31.4149 67 31.4C66.488 31.4514 65.9719 31.3566 65.5117 31.1265C65.0515 30.8964 64.666 30.5404 64.4 30.1V35H62.2999V25C62.2999 24 62.3 23 62.2 21.9H64L64.0999 23.4C64.4153 22.8634 64.8699 22.422 65.4156 22.1227C65.9614 21.8234 66.5779 21.6774 67.1999 21.7C67.7215 21.6824 68.2396 21.7915 68.7098 22.0179C69.1801 22.2443 69.5884 22.5813 69.9 23C70.3555 23.4347 70.7085 23.9653 70.9334 24.5534C71.1582 25.1415 71.2493 25.7723 71.1999 26.4ZM69.0999 26.4C69.1444 25.621 68.9337 24.8486 68.5 24.2C68.3062 23.9043 68.0376 23.6652 67.7214 23.5071C67.4052 23.349 67.0527 23.2776 66.6999 23.3C66.192 23.3136 65.7016 23.4887 65.3 23.8C64.888 24.1252 64.6046 24.5857 64.5 25.1C64.432 25.2927 64.3982 25.4957 64.4 25.7V27.3C64.3835 27.9213 64.5972 28.5267 65 29C65.1963 29.2301 65.4424 29.4126 65.7195 29.5339C65.9966 29.6551 66.2977 29.7119 66.5999 29.7C66.9528 29.7225 67.3052 29.651 67.6214 29.4929C67.9376 29.3348 68.2062 29.0957 68.4 28.8C68.9117 28.1089 69.1599 27.2578 69.0999 26.4Z" fill="white"/>
<path d="M83.2 27.5C83.2097 28.0012 83.1171 28.499 82.928 28.9633C82.7389 29.4275 82.4572 29.8483 82.1 30.2C81.6184 30.6058 81.0611 30.9119 80.4603 31.1008C79.8595 31.2896 79.2272 31.3573 78.6 31.3C77.4469 31.3467 76.3038 31.0696 75.3 30.5L75.8 28.8C76.7145 29.3205 77.7478 29.5961 78.8 29.6C79.438 29.6292 80.0686 29.454 80.6 29.1C80.7952 28.9238 80.95 28.7075 81.0535 28.4658C81.1571 28.2241 81.2071 27.9629 81.2 27.7C81.2039 27.219 81.0253 26.7544 80.7 26.4C80.1759 25.9454 79.5629 25.6048 78.9 25.4C76.6 24.6 75.5 23.3 75.5 21.7C75.4859 21.2034 75.5869 20.7103 75.7951 20.2593C76.0033 19.8082 76.313 19.4114 76.7 19.1C77.6005 18.3715 78.745 18.0139 79.9 18.1C80.9009 18.0644 81.8955 18.2702 82.8 18.7L82.3 20.4C81.5355 19.9797 80.6721 19.7725 79.8 19.8C79.1947 19.7825 78.5995 19.9576 78.1 20.3C77.9403 20.4561 77.8136 20.6428 77.7277 20.849C77.6418 21.0552 77.5984 21.2766 77.6 21.5C77.6034 21.7466 77.6585 21.9898 77.7619 22.2138C77.8652 22.4377 78.0145 22.6375 78.2 22.8C78.784 23.2198 79.4234 23.5563 80.1 23.8C81.0418 24.1412 81.8957 24.6878 82.6 25.4C82.991 26.0308 83.1987 26.7579 83.2 27.5Z" fill="white"/>
<path d="M90 23.4H87.7V27.9C87.7 29 88.1 29.6 88.9 29.6C89.2037 29.6289 89.5101 29.5948 89.8 29.5L89.9 31.1C89.3882 31.2848 88.8416 31.3531 88.3 31.3C87.9512 31.3323 87.5995 31.2862 87.2708 31.1651C86.942 31.044 86.6445 30.8509 86.4 30.6C85.8452 29.8921 85.5935 28.9931 85.7 28.1V23.4H84.3V21.8H85.7V20.1L87.7 19.5V21.8H90V23.4Z" fill="white"/>
<path d="M100.3 26.4C100.349 27.6753 99.9214 28.9232 99.1 29.9C98.66 30.3546 98.131 30.7136 97.546 30.9545C96.9609 31.1954 96.3325 31.313 95.7 31.3C95.0809 31.3232 94.4643 31.2098 93.894 30.9678C93.3236 30.7259 92.8136 30.3613 92.4 29.9C91.5797 28.9619 91.1503 27.7451 91.2 26.5C91.169 25.859 91.2683 25.2185 91.4917 24.6169C91.7151 24.0154 92.0581 23.4653 92.5 23C92.9338 22.5373 93.4618 22.173 94.0483 21.9315C94.6347 21.69 95.2662 21.577 95.9 21.6C96.5191 21.5768 97.1357 21.6902 97.706 21.9322C98.2764 22.1742 98.7864 22.5387 99.2 23C99.947 23.973 100.335 25.1739 100.3 26.4ZM98.1 26.5C98.1299 25.7225 97.9205 24.9546 97.5 24.3C97.3082 23.9655 97.0316 23.6875 96.6979 23.4942C96.3643 23.3009 95.9856 23.1991 95.6 23.1991C95.2144 23.1991 94.8357 23.3009 94.502 23.4942C94.1684 23.6875 93.8917 23.9655 93.7 24.3C93.2908 24.9596 93.0823 25.724 93.1 26.5C93.0701 27.2775 93.2795 28.0454 93.7 28.7C93.8878 29.0379 94.1636 29.3185 94.4982 29.5122C94.8327 29.7059 95.2135 29.8053 95.6 29.8C95.9841 29.7932 96.3601 29.6887 96.6925 29.4962C97.025 29.3037 97.3029 29.0297 97.5 28.7C97.9092 28.0404 98.1177 27.276 98.1 26.5Z" fill="white"/>
<path d="M107 23.6C106.8 23.6 106.6 23.5 106.3 23.5C105.974 23.4952 105.652 23.5648 105.358 23.7035C105.063 23.8421 104.804 24.0461 104.6 24.3C104.271 24.8426 104.098 25.4654 104.1 26.1V31H102V24.6C102.02 23.6322 101.987 22.6641 101.9 21.7H103.7L103.8 23.5H103.9C104.115 22.9304 104.457 22.4174 104.9 22C105.346 21.7022 105.864 21.5295 106.4 21.5H106.9V23.6H107Z" fill="white"/>
<path d="M116.2 26C116.229 26.3037 116.195 26.61 116.1 26.9H109.9C109.879 27.2956 109.949 27.6909 110.105 28.055C110.261 28.4192 110.499 28.7426 110.8 29C111.369 29.4523 112.073 29.699 112.8 29.7C113.651 29.73 114.5 29.5941 115.3 29.3L115.6 30.7C114.621 31.1192 113.564 31.3238 112.5 31.3C111.873 31.3397 111.245 31.2442 110.659 31.0199C110.072 30.7956 109.54 30.4478 109.1 30C108.686 29.5401 108.367 29.0031 108.161 28.4196C107.955 27.8362 107.866 27.2178 107.9 26.6C107.865 25.3431 108.252 24.1108 109 23.1C109.393 22.6078 109.897 22.2154 110.47 21.9547C111.044 21.6941 111.671 21.5725 112.3 21.6C112.888 21.5622 113.476 21.6812 114.003 21.9447C114.53 22.2082 114.977 22.6069 115.3 23.1C115.951 23.9206 116.272 24.9549 116.2 26ZM114.3 25.5C114.323 24.9394 114.184 24.384 113.9 23.9C113.739 23.6202 113.505 23.389 113.223 23.2307C112.942 23.0723 112.623 22.9926 112.3 23C111.989 22.9952 111.681 23.0653 111.402 23.2046C111.124 23.3438 110.883 23.548 110.7 23.8C110.382 24.2812 110.177 24.8282 110.1 25.4H114.3V25.5Z" fill="white"/>
<path d="M45.4 10.3C45.4364 10.7804 45.3656 11.2629 45.1926 11.7126C45.0197 12.1622 44.7489 12.5678 44.4 12.9C43.6211 13.474 42.6658 13.757 41.7 13.7C41.1978 13.7237 40.6945 13.6902 40.2 13.6V7.4C40.7956 7.31097 41.3981 7.2775 42 7.3C42.8902 7.22644 43.7773 7.47483 44.5 8C45.0919 8.61776 45.4154 9.44457 45.4 10.3ZM44.2999 10.3C44.3168 9.99109 44.2724 9.6819 44.1694 9.39017C44.0665 9.09844 43.9069 8.82992 43.7 8.6C43.47 8.39301 43.2015 8.23346 42.9098 8.1305C42.618 8.02753 42.3089 7.98319 42 8C41.7293 7.97868 41.4571 8.0127 41.2 8.1V12.8H41.9C42.2248 12.8253 42.5515 12.7852 42.8607 12.6821C43.1698 12.5791 43.4552 12.4151 43.7 12.2C44.134 11.6658 44.3485 10.9865 44.2999 10.3Z" fill="white"/>
<path d="M51.0001 11.3C51.0169 11.6089 50.9725 11.9181 50.8696 12.2098C50.7666 12.5016 50.607 12.7701 50.4001 13C50.1903 13.2404 49.9275 13.4287 49.6325 13.5502C49.3375 13.6716 49.0183 13.7229 48.7001 13.7C48.3964 13.7232 48.0918 13.6715 47.8128 13.5495C47.5338 13.4274 47.2891 13.2387 47.1001 13C46.8931 12.7701 46.7335 12.5016 46.6306 12.2098C46.5276 11.9181 46.4832 11.6089 46.5001 11.3C46.4832 10.9911 46.5276 10.6819 46.6306 10.3902C46.7335 10.0985 46.8931 9.82992 47.1001 9.6C47.3099 9.35965 47.5726 9.17131 47.8676 9.04984C48.1626 8.92836 48.4818 8.87707 48.8001 8.9C49.1037 8.8768 49.4083 8.92849 49.6873 9.05054C49.9663 9.17259 50.211 9.36127 50.4001 9.6C50.607 9.82992 50.7666 10.0985 50.8696 10.3902C50.9725 10.6819 51.0169 10.9911 51.0001 11.3ZM50.0001 11.3C50.0089 10.912 49.9047 10.5298 49.7001 10.2C49.6228 10.0317 49.4938 9.89251 49.332 9.80258C49.1701 9.71265 48.9838 9.67672 48.8001 9.7C48.6197 9.69905 48.4422 9.74455 48.2846 9.83212C48.1269 9.9197 47.9945 10.0464 47.9001 10.2C47.704 10.5334 47.6006 10.9132 47.6006 11.3C47.6006 11.6868 47.704 12.0666 47.9001 12.4C47.9773 12.5683 48.1063 12.7075 48.2682 12.7974C48.43 12.8873 48.6164 12.9233 48.8001 12.9C48.9918 12.8968 49.1786 12.8386 49.3382 12.7322C49.4977 12.6258 49.6234 12.4758 49.7001 12.3C49.9174 12.0138 50.0239 11.6586 50.0001 11.3Z" fill="white"/>
<path d="M58.7 9L57.3 13.6H56.4L55.8 11.6C55.6203 11.1135 55.4864 10.6114 55.4 10.1C55.3137 10.6114 55.1797 11.1135 55 11.6L54.4 13.6H53.5L52 9H53L53.5 11.2L53.8 12.7C53.9 12.3 54 11.8 54.2 11.2L54.8 9H55.6L56.2 11.1C56.3797 11.5865 56.5136 12.0886 56.6 12.6L56.9 11.1L57.5 9H58.7Z" fill="white"/>
<path d="M63.9 13.6H62.9V11C62.9 10.2 62.6 9.8 62 9.8C61.8686 9.79647 61.7379 9.82146 61.6171 9.87325C61.4963 9.92504 61.3881 10.0024 61.3 10.1C61.1001 10.3177 60.9925 10.6045 61 10.9V13.6H60V9H60.9V9.7C61.0361 9.47641 61.2046 9.27421 61.4 9.1C61.6631 8.91188 61.9767 8.80734 62.3 8.8C62.5008 8.78955 62.7017 8.81957 62.8906 8.88828C63.0796 8.957 63.2528 9.06301 63.4 9.2C63.5972 9.39181 63.7456 9.62814 63.8326 9.88914C63.9196 10.1501 63.9427 10.4282 63.9 10.7V13.6Z" fill="white"/>
<path d="M66.7 13.6H65.7V6.89999H66.7V13.6Z" fill="white"/>
<path d="M72.7 11.3C72.7168 11.6089 72.6725 11.9181 72.5695 12.2098C72.4665 12.5016 72.307 12.7701 72.1 13C71.8902 13.2404 71.6274 13.4287 71.3324 13.5502C71.0374 13.6716 70.7182 13.7229 70.4 13.7C70.0964 13.7232 69.7917 13.6715 69.5127 13.5495C69.2338 13.4274 68.989 13.2387 68.8 13C68.593 12.7701 68.4335 12.5016 68.3305 12.2098C68.2275 11.9181 68.1832 11.6089 68.2 11.3C68.1832 10.9911 68.2275 10.6819 68.3305 10.3902C68.4335 10.0985 68.593 9.82992 68.8 9.6C69.2519 9.1512 69.8631 8.89953 70.5 8.9C70.8036 8.8768 71.1083 8.92849 71.3873 9.05054C71.6662 9.17259 71.911 9.36127 72.1 9.6C72.307 9.82992 72.4665 10.0985 72.5695 10.3902C72.6725 10.6819 72.7168 10.9911 72.7 11.3ZM71.7 11.3C71.7089 10.912 71.6046 10.5298 71.4 10.2C71.3227 10.0317 71.1938 9.89251 71.0319 9.80258C70.87 9.71265 70.6837 9.67672 70.5 9.7C70.3197 9.69905 70.1422 9.74455 69.9845 9.83212C69.8269 9.9197 69.6945 10.0464 69.6 10.2C69.4039 10.5334 69.3005 10.9132 69.3005 11.3C69.3005 11.6868 69.4039 12.0666 69.6 12.4C69.6773 12.5683 69.8062 12.7075 69.9681 12.7974C70.13 12.8873 70.3163 12.9233 70.5 12.9C70.6918 12.8968 70.8786 12.8386 71.0381 12.7322C71.1977 12.6258 71.3233 12.4758 71.4 12.3C71.6173 12.0138 71.7239 11.6586 71.7 11.3Z" fill="white"/>
<path d="M77.6 13.6H76.7L76.6 13.1C76.4442 13.2935 76.2459 13.4484 76.0203 13.5525C75.7948 13.6566 75.5483 13.7071 75.3 13.7C75.1134 13.7192 74.9249 13.6928 74.7507 13.6231C74.5766 13.5534 74.4219 13.4426 74.3 13.3C74.0856 13.043 73.947 12.7314 73.9 12.4C73.8791 12.1389 73.934 11.8774 74.0582 11.6467C74.1824 11.4161 74.3705 11.2263 74.6 11.1C75.2167 10.784 75.9091 10.6455 76.6 10.7V10.6C76.6165 10.4779 76.6046 10.3537 76.5652 10.237C76.5258 10.1203 76.46 10.0142 76.3729 9.9271C76.2858 9.84 76.1797 9.77418 76.063 9.73479C75.9463 9.6954 75.822 9.68349 75.7 9.7C75.2805 9.6925 74.8665 9.79599 74.5 10L74.3 9.3C74.774 8.99241 75.337 8.85166 75.9 8.9C77.1 8.9 77.7 9.5 77.7 10.8V12.5C77.6254 12.8617 77.5918 13.2307 77.6 13.6ZM76.6 12V11.3C75.5 11.3 74.9 11.6 74.9 12.2C74.8972 12.2927 74.9134 12.3849 74.9476 12.4711C74.9818 12.5573 75.0333 12.6356 75.0988 12.7011C75.1644 12.7667 75.2427 12.8182 75.3288 12.8524C75.415 12.8866 75.5073 12.9028 75.6 12.9C75.8125 12.8793 76.0175 12.8109 76.2 12.7C76.3845 12.5817 76.525 12.406 76.6 12.2V12Z" fill="white"/>
<path d="M83.4 13.6H82.5V12.9C82.3625 13.1713 82.1447 13.3937 81.8763 13.5369C81.6079 13.68 81.302 13.737 81 13.7C80.7372 13.7071 80.4759 13.6571 80.2342 13.5535C79.9926 13.4499 79.7762 13.2952 79.6 13.1C79.4089 12.8635 79.2663 12.5916 79.1805 12.2999C79.0947 12.0081 79.0674 11.7023 79.1 11.4C79.0836 10.7483 79.2959 10.1115 79.7 9.6C80.0693 9.22317 80.5725 9.00751 81.1 9C81.3497 8.9828 81.5996 9.02876 81.8268 9.13362C82.054 9.23848 82.2512 9.39887 82.4 9.6V7H83.4V13.6ZM82.4 11.7V10.6C82.3025 10.3783 82.1671 10.1753 82 10C81.9058 9.91629 81.794 9.85485 81.6728 9.82023C81.5516 9.7856 81.4242 9.77869 81.3 9.8C81.1197 9.79904 80.9422 9.84455 80.7845 9.93212C80.6269 10.0197 80.4945 10.1464 80.4 10.3C80.1835 10.6615 80.0791 11.0791 80.1 11.5C80.0782 11.8895 80.1835 12.2755 80.4 12.6C80.4945 12.7536 80.6269 12.8803 80.7845 12.9679C80.9422 13.0555 81.1197 13.101 81.3 13.1C81.4565 13.1078 81.6124 13.0751 81.7526 13.0051C81.8927 12.935 82.0124 12.8299 82.1 12.7C82.2774 12.3949 82.3802 12.0523 82.4 11.7Z" fill="white"/>
<path d="M92.1 11.3C92.1168 11.6089 92.0725 11.9181 91.9695 12.2098C91.8666 12.5016 91.707 12.7701 91.5 13C91.2902 13.2404 91.0275 13.4287 90.7325 13.5502C90.4374 13.6716 90.1183 13.7229 89.8 13.7C89.4964 13.7232 89.1917 13.6715 88.9128 13.5495C88.6338 13.4274 88.389 13.2387 88.2 13C87.993 12.7701 87.8335 12.5016 87.7305 12.2098C87.6276 11.9181 87.5832 11.6089 87.6 11.3C87.5832 10.9911 87.6276 10.6819 87.7305 10.3902C87.8335 10.0985 87.993 9.82992 88.2 9.6C88.4098 9.35965 88.6726 9.17131 88.9676 9.04984C89.2626 8.92836 89.5818 8.87707 89.9 8.9C90.2037 8.8768 90.5083 8.92849 90.7873 9.05054C91.0663 9.17259 91.311 9.36127 91.5 9.6C91.707 9.82992 91.8666 10.0985 91.9695 10.3902C92.0725 10.6819 92.1168 10.9911 92.1 11.3ZM91 11.3C91.0089 10.912 90.9046 10.5298 90.7 10.2C90.6227 10.0317 90.4938 9.89251 90.3319 9.80258C90.1701 9.71265 89.9837 9.67672 89.8 9.7C89.6197 9.69905 89.4422 9.74455 89.2845 9.83212C89.1269 9.9197 88.9945 10.0464 88.9 10.2C88.704 10.5334 88.6006 10.9132 88.6006 11.3C88.6006 11.6868 88.704 12.0666 88.9 12.4C88.9773 12.5683 89.1063 12.7075 89.2681 12.7974C89.43 12.8873 89.6163 12.9233 89.8 12.9C89.9918 12.8968 90.1786 12.8386 90.3382 12.7322C90.4977 12.6258 90.6233 12.4758 90.7 12.3C90.9174 12.0138 91.0239 11.6586 91 11.3Z" fill="white"/>
<path d="M97.6 13.6H96.6V11C96.6 10.2 96.3 9.8 95.7 9.8C95.5685 9.79647 95.4379 9.82146 95.3171 9.87325C95.1962 9.92504 95.088 10.0024 95 10.1C94.8 10.3177 94.6925 10.6045 94.7 10.9V13.6H93.7V9H94.6V9.7C94.7361 9.47641 94.9046 9.27421 95.1 9.1C95.363 8.91188 95.6766 8.80734 96 8.8C96.2008 8.78955 96.4016 8.81957 96.5906 8.88828C96.7795 8.957 96.9528 9.06301 97.1 9.2C97.2972 9.39181 97.4455 9.62814 97.5325 9.88914C97.6195 10.1501 97.6427 10.4282 97.6 10.7V13.6Z" fill="white"/>
<path d="M104.4 9.79999H103.3V12C103.3 12.6 103.5 12.8 103.9 12.8H104.4V13.6C104.143 13.6873 103.871 13.7213 103.6 13.7C103.428 13.7167 103.255 13.6886 103.097 13.6185C102.94 13.5484 102.803 13.4387 102.7 13.3C102.47 12.944 102.365 12.5221 102.4 12.1V9.79999H101.7V8.99999H102.4V8.19999L103.4 7.89999V8.99999H104.5V9.79999H104.4Z" fill="white"/>
<path d="M109.8 13.6H108.8V11C108.8 10.2 108.5 9.79999 107.9 9.79999C107.679 9.7899 107.462 9.85309 107.281 9.97972C107.1 10.1063 106.966 10.2893 106.9 10.5V13.6H105.9V6.89999H106.9V9.69999C107.042 9.45464 107.246 9.2513 107.492 9.11074C107.738 8.97019 108.017 8.89746 108.3 8.89999C108.487 8.88084 108.675 8.90723 108.849 8.9769C109.023 9.04657 109.178 9.15743 109.3 9.29999C109.643 9.72304 109.82 10.256 109.8 10.8V13.6Z" fill="white"/>
<path d="M115.3 11.1V11.6H112.3C112.293 11.7854 112.325 11.9701 112.394 12.1423C112.463 12.3145 112.567 12.4704 112.7 12.6C112.993 12.803 113.343 12.9081 113.7 12.9C114.108 12.8995 114.514 12.8319 114.9 12.7L115.1 13.4C114.63 13.6147 114.116 13.7174 113.6 13.7C113.291 13.7168 112.982 13.6725 112.69 13.5695C112.398 13.4665 112.13 13.307 111.9 13.1C111.693 12.8701 111.533 12.6016 111.43 12.3098C111.328 12.0181 111.283 11.7089 111.3 11.4C111.283 11.0911 111.328 10.7819 111.43 10.4902C111.533 10.1985 111.693 9.92993 111.9 9.70001C112.089 9.46127 112.334 9.2726 112.613 9.15055C112.892 9.0285 113.196 8.9768 113.5 9.00001C113.79 8.96656 114.084 9.01428 114.349 9.13786C114.614 9.26143 114.839 9.45603 115 9.70001C115.227 10.1303 115.33 10.6147 115.3 11.1ZM114.4 10.8C114.393 10.5218 114.325 10.2486 114.2 10C114.121 9.86215 114.002 9.75071 113.86 9.67958C113.718 9.60844 113.558 9.58077 113.4 9.60001C113.243 9.59216 113.088 9.62486 112.947 9.69494C112.807 9.76502 112.688 9.8701 112.6 10C112.4 10.2177 112.292 10.5045 112.3 10.8H114.4Z" fill="white"/>
</svg>
