<svg width="40" height="50" viewBox="0 0 40 50" fill="none" xmlns="http://www.w3.org/2000/svg">
<path d="M35 0H16.6667C14.3667 0.00270833 12.5027 1.86667 12.5 4.16667V21.6667H0.833333V31.6667H5.83333V35H12.5V45.8333C12.5027 48.1333 14.3667 49.9973 16.6667 50H35C37.3 49.9973 39.164 48.1333 39.1667 45.8333V4.16667C39.164 1.86667 37.3 0.00270833 35 0ZM10.8333 27.5V33.3333H7.5V30H2.5V23.3333H23.3333C23.7935 23.3333 24.1667 23.7065 24.1667 24.1667C24.1667 24.6269 23.7935 25 23.3333 25H13.3333C11.9526 25 10.8333 26.1193 10.8333 27.5ZM12.5 33.3333V27.5C12.5 27.0398 12.8731 26.6667 13.3333 26.6667H17.5V32.5C17.5 32.9602 17.1269 33.3333 16.6667 33.3333H12.5ZM37.5 45.8333C37.5 47.2141 36.3807 48.3333 35 48.3333H16.6667C15.2859 48.3333 14.1667 47.2141 14.1667 45.8333V43.3333H37.5V45.8333ZM37.5 41.6667H14.1667V35H16.6667C18.0474 35 19.1667 33.8807 19.1667 32.5V26.6667H23.3333C24.7141 26.6667 25.8333 25.5474 25.8333 24.1667C25.8333 22.7859 24.7141 21.6667 23.3333 21.6667H14.1667V9.16667H37.5V41.6667ZM37.5 7.5H14.1667V4.16667C14.1667 2.78594 15.2859 1.66667 16.6667 1.66667H35C36.3807 1.66667 37.5 2.78594 37.5 4.16667V7.5Z" fill="#ffffff"/>
</svg>
