<svg width="128" height="40" viewBox="0 0 128 40" fill="none" xmlns="http://www.w3.org/2000/svg">
<rect width="128" height="40" fill="black" fill-opacity="0"/>
<rect width="128" height="40" fill="black" fill-opacity="0"/>
<rect width="128" height="40" fill="black" fill-opacity="0"/>
<path d="M124 40H4C2.93913 40 1.92172 39.5786 1.17157 38.8284C0.421427 38.0783 0 37.0609 0 36V4C0 2.93913 0.421427 1.92172 1.17157 1.17157C1.92172 0.421427 2.93913 0 4 0L124 0C125.061 0 126.078 0.421427 126.828 1.17157C127.579 1.92172 128 2.93913 128 4V36C128 37.0609 127.579 38.0783 126.828 38.8284C126.078 39.5786 125.061 40 124 40Z" fill="black"/>
<path d="M9.80006 19.6V9.1C9.79892 8.82479 9.90099 8.55915 10.0861 8.3555C10.2712 8.15186 10.526 8.02501 10.8001 8C11.1587 7.97612 11.5138 8.08267 11.8001 8.3L31.1001 18.9C31.2751 18.9484 31.4294 19.0528 31.5394 19.1973C31.6494 19.3418 31.7089 19.5184 31.7089 19.7C31.7089 19.8816 31.6494 20.0582 31.5394 20.2027C31.4294 20.3472 31.2751 20.4516 31.1001 20.5L11.8001 31.1C11.4992 31.2868 11.1541 31.3903 10.8001 31.4C10.526 31.375 10.2712 31.2481 10.0861 31.0445C9.90099 30.8409 9.79892 30.5752 9.80006 30.3V19.6Z" fill="url(#paint0_linear)"/>
<path d="M22.3001 19.7L10.6001 8H10.8001C11.1587 7.97612 11.5139 8.08267 11.8001 8.3L26.0001 16.1L22.3001 19.7Z" fill="url(#paint1_linear)"/>
<path d="M25.9 23.2L22.3 19.6L26 15.9L31.1 18.7C31.2751 18.7484 31.4294 18.8528 31.5394 18.9973C31.6494 19.1418 31.7089 19.3184 31.7089 19.5C31.7089 19.6816 31.6494 19.8582 31.5394 20.0027C31.4294 20.1472 31.2751 20.2516 31.1 20.3L25.9 23.2Z" fill="url(#paint2_linear)"/>
<path d="M10.7 31.2L22.3 19.6L25.9 23.2L11.8 30.9C11.4822 31.1308 11.0909 31.2375 10.7 31.2Z" fill="url(#paint3_linear)"/>
<path d="M71.1 33.9C70.6388 33.4767 70.2651 32.9671 70 32.4L71.6 31.7C71.7529 31.975 71.9198 32.242 72.1 32.5C72.5146 32.9572 73.0854 33.2426 73.7 33.3C74.0238 33.2944 74.3428 33.2203 74.6358 33.0824C74.9288 32.9445 75.1893 32.746 75.4 32.5C75.7285 31.994 75.9023 31.4032 75.9 30.8V30.2C74.7 31.7 72.2 31.5 70.8 29.9C70.0754 29.0882 69.6749 28.0381 69.6749 26.95C69.6749 25.8618 70.0754 24.8118 70.8 24C72.3 22.5 74.5 22.3 75.8 23.7V23H77.5V30.5C77.5533 31.2002 77.4355 31.9029 77.1568 32.5475C76.8781 33.1921 76.4467 33.7592 75.9 34.2C75.233 34.6835 74.4233 34.93 73.6 34.9C72.6854 34.8241 71.8146 34.4757 71.1 33.9ZM113 34.3L114.7 30.3L111.7 23.4H113.4L115.5 28.3L117.6 23.4H119.3L114.7 34.3H113ZM104.9 30.5C104.664 30.2449 104.481 29.9458 104.361 29.6198C104.24 29.2937 104.186 28.9472 104.2 28.6C104.184 28.0089 104.399 27.4348 104.8 27C105.177 26.6565 105.619 26.3912 106.1 26.2196C106.58 26.0479 107.09 25.9733 107.6 26C108.225 25.966 108.848 26.1044 109.4 26.4C109.4 26.1681 109.353 25.9385 109.262 25.7255C109.17 25.5124 109.036 25.3204 108.867 25.1611C108.699 25.0019 108.499 24.8788 108.281 24.7995C108.063 24.7202 107.831 24.6863 107.6 24.7C107.24 24.6983 106.888 24.8014 106.586 24.9968C106.284 25.1921 106.046 25.4712 105.9 25.8L104.4 25.2C104.645 24.5857 105.075 24.063 105.63 23.7045C106.186 23.346 106.839 23.1697 107.5 23.2C107.979 23.173 108.459 23.2482 108.907 23.4206C109.356 23.593 109.762 23.8586 110.1 24.2C110.688 24.9331 110.974 25.8631 110.9 26.8V31H109.2V30.3C108.946 30.5868 108.641 30.8241 108.3 31C107.862 31.2048 107.383 31.3074 106.9 31.3C106.171 31.2285 105.477 30.951 104.9 30.5ZM51.6 26.9C51.5933 26.3466 51.6973 25.7974 51.906 25.2848C52.1147 24.7722 52.4238 24.3065 52.8152 23.9152C53.2065 23.5238 53.6722 23.2147 54.1848 23.006C54.6974 22.7973 55.2466 22.6933 55.8 22.7C56.9123 22.7052 57.9775 23.1494 58.764 23.9359C59.5505 24.7225 59.9947 25.7877 60 26.9C60 28.0139 59.5575 29.0822 58.7698 29.8698C57.9822 30.6575 56.9139 31.1 55.8 31.1C54.6861 31.1 53.6178 30.6575 52.8301 29.8698C52.0425 29.0822 51.6 28.0139 51.6 26.9ZM60.6 26.9C60.5933 26.3466 60.6973 25.7974 60.906 25.2848C61.1147 24.7722 61.4238 24.3065 61.8152 23.9152C62.2065 23.5238 62.6722 23.2147 63.1848 23.006C63.6974 22.7973 64.2466 22.6933 64.8 22.7C65.9123 22.7052 66.9775 23.1494 67.764 23.9359C68.5505 24.7225 68.9947 25.7877 69 26.9C69.0067 27.4534 68.9026 28.0026 68.6939 28.5152C68.4852 29.0278 68.1761 29.4934 67.7848 29.8848C67.3934 30.2761 66.9278 30.5853 66.4152 30.7939C65.9026 31.0026 65.3534 31.1067 64.8 31.1C63.6877 31.0947 62.6225 30.6505 61.8359 29.864C61.0494 29.0775 60.6052 28.0123 60.6 26.9ZM40.3 29.1C39.1112 27.8575 38.4561 26.1991 38.4748 24.4796C38.4934 22.7601 39.1845 21.1163 40.4 19.9C40.9993 19.2898 41.7156 18.807 42.5061 18.4805C43.2965 18.154 44.1448 17.9906 45 18C45.8157 17.9958 46.6243 18.1526 47.3794 18.4615C48.1344 18.7704 48.8211 19.2252 49.4 19.8L48.2 21.1C47.7769 20.6795 47.274 20.3479 46.7208 20.1247C46.1676 19.9016 45.5753 19.7915 44.9789 19.8008C44.3825 19.8101 43.7939 19.9387 43.248 20.179C42.702 20.4193 42.2097 20.7665 41.8 21.2C40.9335 22.1 40.4494 23.3007 40.4494 24.55C40.4494 25.7993 40.9335 27 41.8 27.9C42.2167 28.3569 42.7225 28.7236 43.2864 28.9776C43.8502 29.2316 44.46 29.3675 45.0784 29.3769C45.6967 29.3862 46.3104 29.2689 46.8816 29.0321C47.4529 28.7953 47.9696 28.4441 48.4 28C48.9404 27.3897 49.2577 26.6141 49.3 25.8H45.1V24H51C51.0866 24.4613 51.1202 24.931 51.1 25.4C51.1041 26.8901 50.5306 28.3238 49.5 29.4C48.3435 30.5062 46.8003 31.1164 45.2 31.1C43.3765 31.0574 41.6325 30.3455 40.3 29.1ZM82.6 29.8C81.8741 28.9691 81.4742 27.9033 81.4742 26.8C81.4742 25.6967 81.8741 24.6309 82.6 23.8C82.9412 23.4226 83.3578 23.1209 83.8229 22.9144C84.288 22.7079 84.7911 22.6012 85.3 22.6012C85.8088 22.6012 86.312 22.7079 86.7771 22.9144C87.2421 23.1209 87.6587 23.4226 88 23.8C88.4817 24.3593 88.8548 25.0037 89.1 25.7L83.6 28C83.7656 28.3915 84.0445 28.7245 84.4009 28.9562C84.7574 29.1879 85.1749 29.3076 85.6 29.3C86.0277 29.3195 86.4522 29.217 86.824 29.0046C87.1958 28.7921 87.4996 28.4784 87.7 28.1L89.2 29.1C89.0046 29.2742 88.8361 29.4764 88.7 29.7C87.8958 30.5065 86.809 30.968 85.6702 30.9867C84.5315 31.0053 83.4302 30.5797 82.6 29.8ZM93 31V19.9H96.6C97.5396 19.842 98.4643 20.1554 99.1751 20.7726C99.8858 21.3898 100.326 22.2616 100.4 23.2C100.393 23.6399 100.3 24.0743 100.126 24.4782C99.9515 24.8822 99.6993 25.2478 99.3835 25.5543C99.0678 25.8607 98.6948 26.1019 98.2858 26.2642C97.8769 26.4265 97.4399 26.5066 97 26.5H94.8V30.9H93V31ZM101.4 31V19.9H103.1V31H101.4ZM78.8 30.8V18.4H80.6V30.8H78.8ZM109.3 27.7C108.821 27.4049 108.262 27.2652 107.7 27.3C106.5 27.3 105.8 27.9 105.8 28.6C105.84 28.9314 106.01 29.2334 106.272 29.4396C106.535 29.6458 106.869 29.7395 107.2 29.7C107.741 29.7031 108.262 29.4964 108.653 29.1235C109.045 28.7505 109.277 28.2403 109.3 27.7ZM58.1 26.9C58.1299 26.5799 58.0926 26.2571 57.9906 25.9523C57.8886 25.6475 57.7241 25.3673 57.5076 25.1296C57.2911 24.892 57.0274 24.7022 56.7334 24.5723C56.4394 24.4424 56.1214 24.3753 55.8 24.3753C55.4785 24.3753 55.1606 24.4424 54.8666 24.5723C54.5725 24.7022 54.3088 24.892 54.0923 25.1296C53.8759 25.3673 53.7114 25.6475 53.6094 25.9523C53.5074 26.2571 53.4701 26.5799 53.5 26.9C53.4825 27.2162 53.5285 27.5327 53.6354 27.8307C53.7423 28.1288 53.9078 28.4025 54.1222 28.6355C54.3366 28.8686 54.5955 29.0563 54.8837 29.1876C55.1719 29.3189 55.4834 29.3911 55.8 29.4C56.4339 29.3663 57.0296 29.0859 57.4594 28.6187C57.8892 28.1514 58.1192 27.5346 58.1 26.9ZM67.1 26.9C67.1299 26.5799 67.0926 26.2571 66.9906 25.9523C66.8886 25.6475 66.7241 25.3673 66.5076 25.1296C66.2911 24.892 66.0274 24.7022 65.7334 24.5723C65.4394 24.4424 65.1214 24.3753 64.8 24.3753C64.4785 24.3753 64.1606 24.4424 63.8666 24.5723C63.5725 24.7022 63.3088 24.892 63.0923 25.1296C62.8759 25.3673 62.7114 25.6475 62.6094 25.9523C62.5074 26.2571 62.4701 26.5799 62.5 26.9C62.4701 27.22 62.5074 27.5428 62.6094 27.8477C62.7114 28.1525 62.8759 28.4327 63.0923 28.6704C63.3088 28.908 63.5725 29.0978 63.8666 29.2277C64.1606 29.3576 64.4785 29.4247 64.8 29.4247C65.1214 29.4247 65.4394 29.3576 65.7334 29.2277C66.0274 29.0978 66.2911 28.908 66.5076 28.6704C66.7241 28.4327 66.8886 28.1525 66.9906 27.8477C67.0926 27.5428 67.1299 27.22 67.1 26.9ZM76 27.6C75.9934 27.5457 75.999 27.4906 76.0163 27.4388C76.0336 27.3869 76.0622 27.3395 76.1 27.3V26.4C76.1 26.3 76 26.1 76 26C75.8713 25.5328 75.5996 25.1176 75.223 24.8127C74.8464 24.5079 74.3837 24.3285 73.9 24.3C73.2839 24.3582 72.7132 24.6493 72.3044 25.1139C71.8956 25.5784 71.6794 26.1815 71.7 26.8C71.6839 27.1159 71.7309 27.4318 71.8382 27.7293C71.9456 28.0268 72.1112 28.2999 72.3254 28.5326C72.5395 28.7654 72.7979 28.9531 73.0854 29.0849C73.373 29.2166 73.6839 29.2898 74 29.3C74.8 29.4 75.6 28.7 76 27.6ZM83.3 26.7L87 25.1C86.8576 24.826 86.642 24.5968 86.3772 24.4379C86.1124 24.279 85.8088 24.1966 85.5 24.2C84.883 24.2559 84.3109 24.5463 83.9016 25.0114C83.4923 25.4765 83.277 26.0809 83.3 26.7ZM98.6 23.3C98.5955 23.0608 98.5417 22.825 98.442 22.6075C98.3423 22.39 98.1988 22.1954 98.0205 22.0359C97.8422 21.8763 97.6329 21.7553 97.4057 21.6803C97.1785 21.6053 96.9382 21.5779 96.7 21.6H94.7V25.1H96.8C97.0367 25.1013 97.2714 25.0557 97.4904 24.9657C97.7094 24.8757 97.9083 24.7431 98.0757 24.5757C98.2431 24.4083 98.3757 24.2094 98.4657 23.9904C98.5556 23.7714 98.6013 23.5367 98.6 23.3Z" fill="white"/>
<path d="M114.3 32.3H114.2V32.2H114.3H114.2V32.3H114.3Z" fill="white"/>
<path d="M114.5 32.2C114.5 32.3 114.4 32.3 114.5 32.2V32.2Z" fill="white"/>
<path d="M114.6 32.2H114.5H114.6V32.3V32.2Z" fill="white"/>
<path d="M38.8999 10.1C38.8829 9.71464 38.9463 9.32995 39.086 8.97039C39.2257 8.61084 39.4387 8.2843 39.7115 8.01154C39.9842 7.73878 40.3108 7.52577 40.6703 7.38605C41.0299 7.24634 41.4146 7.18298 41.7999 7.20001C42.2538 7.18707 42.7035 7.29056 43.1061 7.50061C43.5087 7.71067 43.8509 8.02029 44.0999 8.40001L43.2999 8.90001C43.1236 8.67245 42.8955 8.49023 42.6346 8.36849C42.3738 8.24674 42.0876 8.18899 41.7999 8.20001C41.5405 8.19521 41.2829 8.24446 41.0436 8.3446C40.8042 8.44475 40.5883 8.59362 40.4096 8.78173C40.2309 8.96983 40.0933 9.19307 40.0056 9.43724C39.9178 9.68142 39.8818 9.94118 39.8999 10.2C39.8818 10.4588 39.9178 10.7186 40.0056 10.9628C40.0933 11.2069 40.2309 11.4302 40.4096 11.6183C40.5883 11.8064 40.8042 11.9553 41.0436 12.0554C41.2829 12.1556 41.5405 12.2048 41.7999 12.2C42.2792 12.1945 42.7405 12.0171 43.0999 11.7V10.8H41.4999V9.90001H44.1999V12C43.9145 12.3265 43.5601 12.5856 43.1623 12.7585C42.7646 12.9315 42.3334 13.0139 41.8999 13C41.5093 13.0192 41.119 12.9581 40.7529 12.8204C40.3869 12.6828 40.053 12.4715 39.7718 12.1998C39.4907 11.928 39.2682 11.6014 39.1183 11.2402C38.9683 10.8791 38.894 10.491 38.8999 10.1Z" fill="white"/>
<path d="M45.3999 12.9V7.29999H49.1999V8.19999H46.2999V9.59999H49.0999V10.5H46.2999V12.1H49.1999V13L45.3999 12.9Z" fill="white"/>
<path d="M52 12.9V8.19999H50.3V7.29999H54.7001V8.19999H53V12.9H52Z" fill="white"/>
<path d="M58.1001 12.9V7.29999H59.1001V12.9H58.1001Z" fill="white"/>
<path d="M61.8001 12.9V8.19999H60.1001V7.29999H64.5001V8.19999H62.8001V12.9H61.8001Z" fill="white"/>
<path d="M67.7001 10.1C67.7001 9.33088 68.0057 8.59326 68.5495 8.0494C69.0934 7.50555 69.831 7.20001 70.6001 7.20001C71.3692 7.20001 72.1069 7.50555 72.6507 8.0494C73.1946 8.59326 73.5001 9.33088 73.5001 10.1C73.5171 10.4854 73.4538 10.8701 73.3141 11.2296C73.1744 11.5892 72.9613 11.9157 72.6886 12.1885C72.4158 12.4612 72.0893 12.6743 71.7297 12.814C71.3702 12.9537 70.9855 13.017 70.6001 13C70.217 13.0082 69.8363 12.9388 69.4807 12.7959C69.1252 12.6531 68.8022 12.4398 68.5313 12.1688C68.2603 11.8979 68.047 11.5749 67.9042 11.2194C67.7613 10.8639 67.6919 10.4831 67.7001 10.1ZM72.4001 10.1C72.4281 9.83909 72.3989 9.57521 72.3148 9.32667C72.2306 9.07812 72.0934 8.85084 71.9127 8.66059C71.7319 8.47035 71.512 8.32167 71.2681 8.22487C71.0242 8.12808 70.7621 8.08547 70.5001 8.10001C70.2428 8.10247 69.9886 8.15663 69.7526 8.25927C69.5166 8.36192 69.3037 8.51096 69.1264 8.69753C68.9492 8.88409 68.8113 9.10439 68.7209 9.34532C68.6304 9.58625 68.5894 9.8429 68.6001 10.1C68.5722 10.3609 68.6013 10.6248 68.6855 10.8734C68.7696 11.1219 68.9068 11.3492 69.0876 11.5394C69.2683 11.7297 69.4882 11.8784 69.7322 11.9752C69.9761 12.0719 70.2381 12.1146 70.5001 12.1C70.76 12.1063 71.0182 12.0581 71.2583 11.9585C71.4984 11.8589 71.7149 11.7101 71.8939 11.5216C72.0729 11.3332 72.2105 11.1093 72.2977 10.8645C72.3849 10.6196 72.4198 10.3592 72.4001 10.1Z" fill="white"/>
<path d="M78.5001 12.9L75.6001 8.89999V12.9H74.6001V7.29999H75.6001L78.5001 11.2V7.29999H79.5001V12.9H78.5001Z" fill="white"/>
<defs>
<linearGradient id="paint0_linear" x1="16.2601" y1="6.58" x2="21.8601" y2="29.57" gradientUnits="userSpaceOnUse">
<stop stop-color="#006884"/>
<stop offset="1" stop-color="#8AD1D0"/>
</linearGradient>
<linearGradient id="paint1_linear" x1="9.4301" y1="9.87" x2="24.6801" y2="18.12" gradientUnits="userSpaceOnUse">
<stop stop-color="#24BBB6"/>
<stop offset="1" stop-color="#DBE692"/>
</linearGradient>
<linearGradient id="paint2_linear" x1="27" y1="23.62" x2="27" y2="15.67" gradientUnits="userSpaceOnUse">
<stop stop-color="#FCC072"/>
<stop offset="1" stop-color="#F58A5B"/>
</linearGradient>
<linearGradient id="paint3_linear" x1="12.37" y1="33.24" x2="24.42" y2="20.97" gradientUnits="userSpaceOnUse">
<stop stop-color="#712B8F"/>
<stop offset="1" stop-color="#EA1D27"/>
</linearGradient>
</defs>
</svg>
