<svg width="150" height="60" viewBox="0 0 499 210" fill="none" xmlns="http://www.w3.org/2000/svg">
<g clip-path="url(#clip0)">
<path fill-rule="evenodd" clip-rule="evenodd" d="M61.2527 34.3671L17.1099 72.0811C-7.12458 92.8128 -3.76972 131.233 23.7754 147.421L59.9285 168.726C88.5772 185.576 125.172 167.844 129.63 134.894L137.576 75.8745C141.681 45.5269 117.314 23.0308 91.1816 23.0308C80.9405 23.0308 70.4345 26.5155 61.2527 34.3671ZM72.156 91.4013C72.156 89.0193 70.2579 87.1226 67.9183 87.1226C65.5787 87.1226 63.6806 89.0193 63.6806 91.4013C63.6806 93.7391 65.5787 95.6358 67.9183 95.6358C70.2579 95.6358 72.156 93.7391 72.156 91.4013ZM66.0643 65.7292L42.5362 85.8434C40.4614 87.6078 38.8282 89.5927 37.548 91.7541C35.0319 95.9887 34.0166 100.841 34.458 105.561C34.8553 110.324 36.7093 114.912 39.9317 118.661C41.5209 120.558 43.5073 122.234 45.8469 123.602L65.1373 134.938C67.3445 136.261 69.684 137.143 72.0236 137.673V109.795V109.751C64.5635 109.222 58.6925 103.046 58.6925 95.4594C58.6925 87.5637 65.1373 81.1677 73.0389 81.1677C80.9405 81.1677 87.3853 87.5637 87.3853 95.4594C87.3853 103.046 81.5143 109.222 74.0542 109.751V109.795V138.025C78.6009 138.599 83.1476 137.761 87.1205 135.82C91.1816 133.879 94.6689 130.747 97.0526 126.733C98.5535 124.175 99.6129 121.22 100.054 118L104.292 86.505C104.469 85.4023 104.513 84.2995 104.513 83.1527C104.513 77.0214 102.173 71.64 98.421 67.6701C94.6689 63.6561 89.5925 61.0095 84.1188 60.2596C83.1476 60.1273 82.0882 60.0391 81.0729 60.0391C78.4243 60.0391 75.7316 60.5243 73.1272 61.4947C70.6993 62.421 68.3156 63.7884 66.0643 65.7292ZM40.5497 83.5497L64.0779 63.3914C66.594 61.2741 69.2867 59.6862 72.0677 58.6275C75.0253 57.5248 78.0712 56.9955 81.0729 56.9955C82.2206 56.9955 83.3683 57.0837 84.516 57.2601C90.696 58.0541 96.4346 61.0536 100.672 65.5969C104.866 70.1402 107.559 76.1833 107.559 83.1527C107.559 84.3878 107.514 85.6228 107.338 86.9461L103.056 118.441C102.57 122.058 101.379 125.366 99.657 128.277C97.0085 132.821 93.0356 136.349 88.4448 138.555C83.898 140.804 78.645 141.731 73.4362 141.025C70.0813 140.54 66.7706 139.437 63.5923 137.584L44.3019 126.204C41.6974 124.66 39.4462 122.763 37.5922 120.646C33.9724 116.412 31.8977 111.207 31.4122 105.825C30.9266 100.488 32.0743 95.0183 34.9436 90.2103C36.3562 87.7842 38.2543 85.4905 40.5497 83.5497Z" fill="#4AA9A5"/>
<path fill-rule="evenodd" clip-rule="evenodd" d="M171.257 64.6706H201.936C210.367 64.6706 217.033 67.0967 221.933 71.8605C226.833 76.6244 229.305 83.1968 229.305 91.5336C229.305 99.8704 226.833 106.399 221.933 111.163C217.033 115.882 210.367 118.264 201.936 118.264H181.807V142.922C181.807 144.377 181.498 145.392 180.924 145.965C180.35 146.539 179.335 146.847 177.878 146.847H171.257C169.8 146.847 168.741 146.539 168.123 145.965C167.505 145.392 167.196 144.377 167.196 142.922V68.5964C167.196 67.1408 167.505 66.1262 168.123 65.5528C168.741 64.9794 169.8 64.6706 171.257 64.6706ZM181.807 104.722H200.568C204.805 104.722 208.116 103.576 210.456 101.238C212.839 98.9441 213.987 95.6799 213.987 91.5336C213.987 87.3873 212.839 84.1231 210.456 81.7412C208.116 79.4033 204.805 78.2124 200.568 78.2124H181.807V104.722ZM252.921 64.8029V143.275C252.921 144.554 252.656 145.48 252.082 146.054C251.553 146.583 250.626 146.847 249.345 146.847H243.077C241.665 146.847 240.738 146.583 240.252 146.054C239.722 145.48 239.502 144.554 239.502 143.275V64.8029C239.502 63.4796 239.722 62.5533 240.252 62.024C240.738 61.4947 241.665 61.23 243.077 61.23H249.345C250.626 61.23 251.553 61.4947 252.082 62.024C252.656 62.5533 252.921 63.4796 252.921 64.8029ZM265.634 97.2238C269.828 89.1958 277.818 85.1818 289.648 85.1818C306.157 85.1818 314.412 93.1216 314.412 109.001V138.996C314.412 140.981 314.103 142.392 313.529 143.275C312.955 144.113 311.852 144.863 310.263 145.568C305.539 147.597 298.565 148.568 289.383 148.568C279.495 148.568 272.741 147.024 269.121 143.936C265.413 140.937 263.559 136.261 263.559 129.821C263.559 122.984 265.59 118.132 269.607 115.353C273.624 112.574 280.378 111.207 289.869 111.207C289.957 111.207 293.621 111.383 300.993 111.78V108.56C300.993 104.678 300.066 101.811 298.256 99.9145C296.446 98.0178 293.488 97.0914 289.383 97.0914C283.689 97.0914 279.627 98.9441 277.244 102.649C276.405 103.884 275.655 104.59 275.081 104.767C274.507 104.987 273.58 104.855 272.256 104.37L267.621 102.429C265.06 101.238 264.398 99.5175 265.634 97.2238ZM300.993 134.938V122.763C298.653 122.719 296.446 122.587 294.327 122.499C292.208 122.366 290.707 122.278 289.78 122.278C288.897 122.234 288.412 122.19 288.368 122.19C284.262 122.19 281.393 122.808 279.716 123.999C278.082 125.189 277.244 127.086 277.244 129.733C277.244 132.424 278.038 134.408 279.627 135.644C281.172 136.879 284.042 137.496 288.103 137.496C292.914 137.496 296.755 137.187 299.712 136.57C300.551 136.173 300.993 135.644 300.993 134.938ZM324.83 124.881V108.869C324.83 101.238 327.081 95.3712 331.539 91.313C336.042 87.2108 342.663 85.1818 351.492 85.1818C357.893 85.1818 363.19 86.5051 367.472 89.1958C371.709 91.9306 374.623 95.6358 376.256 100.311C377.095 102.87 376.256 104.59 373.696 105.516L368.619 107.149C366.147 108.075 364.426 107.281 363.499 104.722C361.601 99.5616 357.363 96.9591 350.874 96.9591C342.487 96.9591 338.249 100.753 338.249 108.295V125.454C338.249 129.071 339.353 131.85 341.516 133.835C343.679 135.776 346.813 136.79 350.874 136.79C357.363 136.79 361.601 134.1 363.499 128.807C364.073 127.395 364.691 126.557 365.441 126.248C366.147 125.939 367.207 126.028 368.619 126.469L373.828 127.968C376.433 128.983 377.271 130.703 376.256 133.173C372.239 143.451 363.631 148.568 350.433 148.568C341.957 148.568 335.556 146.539 331.275 142.436C326.993 138.378 324.83 132.512 324.83 124.881ZM384.599 123.822V110.148C384.599 102.076 386.895 95.8564 391.485 91.5777C396.076 87.299 402.742 85.1818 411.482 85.1818C420.046 85.1818 426.623 87.3431 431.258 91.71C435.893 96.0769 438.233 101.855 438.233 109.133V116.191C438.233 119.499 436.467 121.175 433.024 121.175H398.019V125.454C398.019 129.204 399.166 132.115 401.462 134.056C403.713 136.041 406.98 137.011 411.217 137.011C417.618 137.011 422.209 134.982 424.902 130.88C425.829 129.556 426.711 128.807 427.506 128.63C428.301 128.41 429.404 128.718 430.817 129.468L434.878 131.674C437.482 132.909 437.924 134.85 436.246 137.496C431.788 144.863 423.445 148.568 411.217 148.568C402.433 148.568 395.767 146.406 391.309 142.04C386.85 137.673 384.599 131.63 384.599 123.822ZM424.769 110.854V108.295C424.769 104.546 423.666 101.635 421.414 99.5616C419.163 97.5325 415.852 96.518 411.482 96.518C407.156 96.518 403.801 97.5325 401.506 99.5616C399.166 101.635 398.019 104.546 398.019 108.295V110.854H424.769ZM447.944 103.796C447.944 98.0178 449.975 93.4744 454.08 90.1221C458.185 86.8138 464.1 85.1818 471.781 85.1818C484.23 85.1818 492.484 89.284 496.59 97.5325C497.826 99.8704 497.208 101.591 494.736 102.738L489.527 104.855C488.202 105.384 487.275 105.561 486.702 105.34C486.084 105.164 485.421 104.458 484.671 103.223C482.508 99.2087 478.314 97.2238 472.134 97.2238C464.895 97.2238 461.275 99.2969 461.275 103.443C461.275 105.913 462.202 107.634 464.1 108.56C465.999 109.486 469.574 110.148 474.827 110.633C483.082 111.383 489.085 113.147 492.837 115.838C496.545 118.529 498.444 123.028 498.444 129.248C498.444 135.202 496.236 139.922 491.91 143.363C487.54 146.847 481.36 148.568 473.415 148.568C459.774 148.568 451.167 143.936 447.591 134.585C446.664 132.203 447.459 130.571 449.931 129.733L455.139 128.101C457.347 127.174 458.936 127.924 459.863 130.306C461.584 134.541 465.954 136.658 472.973 136.658C481.14 136.658 485.245 134.408 485.245 129.821C485.245 127.351 484.274 125.631 482.331 124.704C480.389 123.734 476.725 122.984 471.34 122.411C465.954 121.881 461.584 120.955 458.229 119.632C456.022 118.794 454.212 117.779 452.8 116.544C449.577 113.677 447.944 109.442 447.944 103.796Z" fill="#5B5B5B"/>
</g>
<defs>
<clipPath id="clip0">
<rect width="499" height="210" fill="white"/>
</clipPath>
</defs>
</svg>
