<svg width="50" height="50" viewBox="0 0 50 50" fill="none" xmlns="http://www.w3.org/2000/svg">
<path d="M34.1667 0H15.8333C13.5333 0.00270833 11.6694 1.86667 11.6667 4.16667V45.8333C11.6694 48.1333 13.5333 49.9973 15.8333 50H34.1667C36.4667 49.9973 38.3306 48.1333 38.3333 45.8333V4.16667C38.3306 1.86667 36.4667 0.00270833 34.1667 0ZM21.6883 48.3333H15.8333C14.4526 48.3333 13.3333 47.2141 13.3333 45.8333V43.3333H21.6883C20.5486 44.8052 20.5486 46.8615 21.6883 48.3333ZM25 48.3333C23.6193 48.3333 22.5 47.2141 22.5 45.8333C22.5 44.4526 23.6193 43.3333 25 43.3333C26.3807 43.3333 27.5 44.4526 27.5 45.8333C27.5 47.2141 26.3807 48.3333 25 48.3333ZM36.6667 45.8333C36.6667 47.2141 35.5474 48.3333 34.1667 48.3333H28.3117C29.4513 46.8615 29.4513 44.8052 28.3117 43.3333H36.6667V45.8333ZM36.6667 41.6667H13.3333V9.16667H36.6667V41.6667ZM36.6667 7.5H13.3333V4.16667C13.3333 2.78594 14.4526 1.66667 15.8333 1.66667H34.1667C35.5474 1.66667 36.6667 2.78594 36.6667 4.16667V7.5Z" fill="white"/>
<path d="M27.5 4.16667H19.1667V5.83333H27.5V4.16667Z" fill="white"/>
<path d="M21.6667 16.6667H18.3333C16.9526 16.6667 15.8333 17.7859 15.8333 19.1667V22.5C15.8333 23.8807 16.9526 25 18.3333 25H21.6667C23.0474 25 24.1667 23.8807 24.1667 22.5V19.1667C24.1667 17.7859 23.0474 16.6667 21.6667 16.6667ZM22.5 22.5C22.5 22.9602 22.1269 23.3333 21.6667 23.3333H18.3333C17.8731 23.3333 17.5 22.9602 17.5 22.5V19.1667C17.5 18.7065 17.8731 18.3333 18.3333 18.3333H21.6667C22.1269 18.3333 22.5 18.7065 22.5 19.1667V22.5Z" fill="white"/>
<path d="M31.6667 16.6667H28.3333C26.9526 16.6667 25.8333 17.7859 25.8333 19.1667V22.5C25.8333 23.8807 26.9526 25 28.3333 25H31.6667C33.0474 25 34.1667 23.8807 34.1667 22.5V19.1667C34.1667 17.7859 33.0474 16.6667 31.6667 16.6667ZM32.5 22.5C32.5 22.9602 32.1269 23.3333 31.6667 23.3333H28.3333C27.8731 23.3333 27.5 22.9602 27.5 22.5V19.1667C27.5 18.7065 27.8731 18.3333 28.3333 18.3333H31.6667C32.1269 18.3333 32.5 18.7065 32.5 19.1667V22.5Z" fill="white"/>
<path d="M21.6667 26.6667H18.3333C16.9526 26.6667 15.8333 27.7859 15.8333 29.1667V32.5C15.8333 33.8807 16.9526 35 18.3333 35H21.6667C23.0474 35 24.1667 33.8807 24.1667 32.5V29.1667C24.1667 27.7859 23.0474 26.6667 21.6667 26.6667ZM22.5 32.5C22.5 32.9602 22.1269 33.3333 21.6667 33.3333H18.3333C17.8731 33.3333 17.5 32.9602 17.5 32.5V29.1667C17.5 28.7065 17.8731 28.3333 18.3333 28.3333H21.6667C22.1269 28.3333 22.5 28.7065 22.5 29.1667V32.5Z" fill="white"/>
<path d="M31.6667 26.6667H28.3333C26.9526 26.6667 25.8333 27.7859 25.8333 29.1667V32.5C25.8333 33.8807 26.9526 35 28.3333 35H31.6667C33.0474 35 34.1667 33.8807 34.1667 32.5V29.1667C34.1667 27.7859 33.0474 26.6667 31.6667 26.6667ZM32.5 32.5C32.5 32.9602 32.1269 33.3333 31.6667 33.3333H28.3333C27.8731 33.3333 27.5 32.9602 27.5 32.5V29.1667C27.5 28.7065 27.8731 28.3333 28.3333 28.3333H31.6667C32.1269 28.3333 32.5 28.7065 32.5 29.1667V32.5Z" fill="white"/>
<path d="M18.3333 10.8333H15.8333C15.3731 10.8333 15 11.2065 15 11.6667V14.1667C15 14.6269 15.3731 15 15.8333 15C16.2935 15 16.6667 14.6269 16.6667 14.1667V12.5H18.3333C18.7935 12.5 19.1667 12.1269 19.1667 11.6667C19.1667 11.2065 18.7935 10.8333 18.3333 10.8333Z" fill="white"/>
<path d="M23.3333 10.8333H21.6667C21.2065 10.8333 20.8333 11.2065 20.8333 11.6667C20.8333 12.1269 21.2065 12.5 21.6667 12.5H23.3333C23.7935 12.5 24.1667 12.1269 24.1667 11.6667C24.1667 11.2065 23.7935 10.8333 23.3333 10.8333Z" fill="white"/>
<path d="M30.8333 4.16667H29.1667V5.83333H30.8333V4.16667Z" fill="white"/>
</svg>
