<svg width="50" height="50" viewBox="0 0 50 50" fill="none" xmlns="http://www.w3.org/2000/svg">
<path d="M29.1666 4.16666H17.4999V5.83332H29.1666V4.16666Z" fill="white"/>
<path d="M24.9999 45H21.6666V46.6667H24.9999V45Z" fill="white"/>
<path d="M32.4999 28.3333H29.1666C28.7064 28.3333 28.3332 28.7065 28.3332 29.1667V32.5C28.3332 32.9602 28.7064 33.3333 29.1666 33.3333H32.4999C32.9601 33.3333 33.3332 32.9602 33.3332 32.5V29.1667C33.3332 28.7065 32.9601 28.3333 32.4999 28.3333ZM31.6666 31.6667H29.9999V30H31.6666V31.6667Z" fill="white"/>
<path d="M26.6666 28.3333H14.9999V30H26.6666V28.3333Z" fill="white"/>
<path d="M26.6666 31.6667H18.3332V33.3333H26.6666V31.6667Z" fill="white"/>
<path d="M16.6666 31.6667H14.9999V33.3333H16.6666V31.6667Z" fill="white"/>
<path d="M10.8332 17.5C8.99229 17.5 7.49989 18.9924 7.49989 20.8333C7.49989 22.6743 8.99229 24.1667 10.8332 24.1667C12.6742 24.1667 14.1666 22.6743 14.1666 20.8333C14.1666 18.9924 12.6742 17.5 10.8332 17.5ZM10.8332 22.5C9.91271 22.5 9.16656 21.7539 9.16656 20.8333C9.16656 19.9128 9.91271 19.1667 10.8332 19.1667C11.7537 19.1667 12.4999 19.9128 12.4999 20.8333C12.4999 21.7539 11.7537 22.5 10.8332 22.5Z" fill="white"/>
<path d="M24.9999 19.1667H23.3332V22.5H24.9999V19.1667Z" fill="white"/>
<path d="M40.8332 15.8333H36.6665V4.16667C36.6638 1.86667 34.7999 0.00270833 32.4999 0H14.1666C11.8666 0.00270833 10.0026 1.86667 9.99989 4.16667V14.2242C6.34979 14.6817 3.76166 18.0116 4.21916 21.6617C4.51958 24.0582 6.09375 26.1044 8.33322 27.0092V35.8333C8.33322 36.2935 8.70635 36.6667 9.16656 36.6667H9.99989V45.8333C10.0026 48.1333 11.8666 49.9973 14.1666 50H32.4999C34.7999 49.9973 36.6638 48.1333 36.6665 45.8333V25.8333H40.8332C43.5947 25.8333 45.8332 23.5948 45.8332 20.8333C45.8332 18.0719 43.5947 15.8333 40.8332 15.8333ZM11.6666 4.16667C11.6666 2.78594 12.7858 1.66667 14.1666 1.66667H32.4999C33.8806 1.66667 34.9999 2.78594 34.9999 4.16667V7.5H11.6666V4.16667V4.16667ZM5.83323 20.8333C5.83323 18.0719 8.07177 15.8333 10.8332 15.8333C13.5947 15.8333 15.8332 18.0719 15.8332 20.8333C15.8332 23.5948 13.5947 25.8333 10.8332 25.8333C8.07291 25.8306 5.83604 23.5936 5.83323 20.8333ZM9.99989 35V27.4425C10.2762 27.479 10.5545 27.4981 10.8332 27.5C11.112 27.4981 11.3902 27.479 11.6666 27.4425V35H9.99989ZM34.9999 45.8333C34.9999 47.2141 33.8806 48.3333 32.4999 48.3333H14.1666C12.7858 48.3333 11.6666 47.2141 11.6666 45.8333V43.3333H34.9999V45.8333ZM34.9999 41.6667H11.6666V36.6667H12.4999C12.9601 36.6667 13.3332 36.2935 13.3332 35.8333V27.0092C16.7441 25.6311 18.3921 21.7491 17.0141 18.3382C16.1093 16.0987 14.0631 14.5246 11.6666 14.2242V9.16667H34.9999V15.8333H24.1665C21.4051 15.8333 19.1666 18.0719 19.1666 20.8333C19.1666 23.5948 21.4051 25.8333 24.1665 25.8333H34.9999V41.6667ZM40.8332 24.1667H24.1665C22.3256 24.1667 20.8332 22.6743 20.8332 20.8333C20.8332 18.9924 22.3256 17.5 24.1665 17.5H40.8332C42.6741 17.5 44.1665 18.9924 44.1665 20.8333C44.1665 22.6743 42.6741 24.1667 40.8332 24.1667Z" fill="white"/>
</svg>
